<svg width="58" height="58" viewBox="0 0 58 58" xmlns="http://www.w3.org/2000/svg"><g fill="none" fill-rule="evenodd"><circle fill="#F8F9FB" cx="29" cy="29" r="29"/><path d="M54.412 15.037a.256.256 0 0 0-.009.007c-.149-.173-.425-.21-.727-.406-.602-.389-1.348-.948-1.681-1.086-1.589-.725-2.276-1.513-2.624-1.517-.886-.01-2.552-.342-2.724-.146-.372.423-.068.834-.207 1.275-.562.075-.883-.151-1.19.03-.876.856-1.104 1.809-1.799 2.716-.09-.274-1.133-.213-1.412-.213-.209-.529-1.357-.875-1.444-1.43.2-.559-.113-1.573.378-2.241.758-.445 3.02.262 3.401-.152.33-.358-.162-1.386.175-1.64a35.577 35.577 0 0 0-1.228-1.047c-.247-.201-.513-.23-.33-.33.603-.119 2.508.282 2.636.055.203-.36 1.56-1.233 2.107-2.003v-.001a29.094 29.094 0 0 1 6.678 8.129zm.767 1.487A28.708 28.708 0 0 1 58 28.973a28.718 28.718 0 0 1-5.87 17.436 8.677 8.677 0 0 0-.083-.051l.01-.012c-.444-1.63-2.489-3.484-2.117-4.035 1.152-1.577-.3-5.185.407-6.177 0-.795-1.416-.236-.794-3.303-.985-1.195-.787 0-1.842-.39.106-.582-.593-.869-1.01-1.687-.72-.376-.806-.071-1.223-.03-.933.09-1.613 1.338-2.027 1.303-1.062-.09-2.685.268-2.757 0-1.104-3.308-2.064-3.24-3.1-4.735-.119-1.447-.083-3.206.06-4.845.215-.894.856-1.498 1.364-2.16.59-.77.815-.337 1.409-.933.594-.595-.453-1.06-.022-1.47a4.877 4.877 0 0 1 1.165-.826c.67-.338 1.751 0 2.3-.338.039-.024 1.275-1.156 2.027-1.686 1.342.139 3.357.048 3.835 0 .079.53-.49 1.493-.287 1.754 1.13.355 3.19 1.208 4.18 1.387.677-.55.521-1.672.919-2.1.294.053.328.544.635.452l-.002-.003h.002zm-9.22-11c-.027.063-.124.36-.062.462 0 .268 0 .687-.153.61 0 .086.02.305.014.325-.027.156-.106.255-.133.388-.054.26.018.427-.003.584-.026.187-.142.074-.106.29-.626.04-1.184-.135-1.647-.144-.798-.015-1.321.103-1.48.07-.11-.139.087-.39.276-.927.094-.265.067-.625.232-1.027-.46-1.168-.857-2.435-1.018-3.094a29.1 29.1 0 0 1 4.08 2.46v.004zM17.188 55.457a29.054 29.054 0 0 1-4.021-2.159c-.451-.29.84-4.518.407-4.832-.51-.369.796-4.31.296-4.675-.938-.684-2.083-.997-2.556-1.971-.748-1.538-1.03-3.381-2.047-4.595-.338-1.046.113-1.801-.026-2.717.334-.72 1.103-1.059 1.486-1.665.058-.707.013-1.781-.232-2.427-2.004.039-1.716-.671-3.812-1.309-.268-1.206.077-.85-.015-1.446-1.093-.643-1.314-1.128-2.238-1.576-1.993.174-1.34-.004-3.057.157-.316.017-.426.209-1.373-.261C1.081 15.51 7.771 6.695 17.03 2.56c.307-.137.323.642.548 1.223.065.853 1.011 1.654 2.13 2.177.292.826.734 1.31.78 1.652-.12.54-1.574.082-1.976.427-.402.344-.538 1.005-1.298 1.269-1.822-.34-2.141 0-1.74.425.211.225.888-.097 1.814.145.481.208.606.573 1.145.997.003.402-.777.581-1.091.958-.656.359-1.377.147-1.816.024-.166.059-.424-1.098-.97-.764-.547.334-.938.178-1.763.81-.17.13 0 .563-.02.846-.028.408.215 1.048-.789 1.228-.14.112.138 1.322-.057 1.587-.914 1.245-2.043 2.006-2.352 2.512-.169.57.564 2.733.432 3.104-.239.26-.78.404-1.157-.548-.376-.95-.513-1.576-.939-1.506-.426.07-1.663.07-2.206 0-.312-.04-.314.413-.656.598-1.895-.523-2.013-.272-2.876.509-.187 1.493.273 2.198.078 3.311.243.378.316.16 1.48 1.191.436.053 1.11.247 1.354-.844.115-.195 1.3-.054 1.816.113.105.366-.715 1.156-.629 1.843-.03.256 1.467.398 2.396.445.279.35-.376 2.132.043 2.496.335.082 2.22.787 2.468.708.329 0 1.497-.886 2.078-1.075 1.631-.176 2.478.097 3.757.097 1.062.455 1.062 2.497 4.871 3.118 1.908 3.69 1.562 3.285 7.594 4.873.232 1.48.232 1.197 0 2.706s-1.084.77-1.759 2.637c-.765 2.113 1.6 1.932-3.927 4.922-.191.104.1.763.1 1.691.227.281-.931.127-3.666 3.772-.714.952-1.91 1.773-3.013 3.169l.012.006-.038.044z" fill="#5C86DF"/></g></svg>