<svg width="58" height="23" viewBox="0 0 58 23" xmlns="http://www.w3.org/2000/svg"><g fill-rule="nonzero" fill="none"><path d="M57.236 12.042c-.029-6.02-4.932-10.923-10.952-10.953l-12.702-.063a10.783 10.783 0 0 0-4.761 1.072 10.794 10.794 0 0 0-5.013 5.012 10.782 10.782 0 0 0-1.072 4.761c.01 1.71.41 3.329 1.12 4.773l.27.001c-.27-.001 4.813.073 4.813.073l-.07-4.816a4.715 4.715 0 0 1 4.744-4.744l.27.002 12.432.06c2.627.014 4.776 2.163 4.79 4.791a4.717 4.717 0 0 1-4.743 4.744l-12.432-.062-3.536 1.477-1.86 3.298c.04.02.465.277.506.297a10.928 10.928 0 0 0 4.65 1.06l12.701.062a10.77 10.77 0 0 0 10.845-10.845z" fill="#5C86DF"/><path d="M34.343 16.42a10.817 10.817 0 0 0 1.077-4.769c-.005-1.52-.828-4.138-.899-4.303-.996.023-1.91-.152-3.356.674a4.783 4.783 0 0 0-1.948 2.282c.093.453.072 1.1.065 1.324a4.735 4.735 0 0 1-4.754 4.754l-.27-.001-12.447-.047a4.82 4.82 0 0 1-4.79-4.79 4.733 4.733 0 0 1 4.754-4.755l12.295.046c.854-1.475 1.19-1.745 1.938-2.561 1.01-.888 1.784-1.555 3.477-2.269-.057-.067-.309-.226-.343-.242A10.92 10.92 0 0 0 24.468.698L11.752.65A10.814 10.814 0 0 0 .882 11.52c.023 6.026 4.926 10.93 10.953 10.954l12.715.047c1.712.006 3.33-.381 4.77-1.078a10.843 10.843 0 0 0 5.023-5.024z" fill="#CAD0E3"/></g></svg>