<?xml version="1.0" encoding="UTF-8"?>
<svg width="134px" height="52px" viewBox="0 0 134 52" version="1.1" xmlns="http://www.w3.org/2000/svg" xmlns:xlink="http://www.w3.org/1999/xlink">
    <!-- Generator: Sketch 54.1 (76490) - https://sketchapp.com -->
    <title>Group 6</title>
    <desc>Created with Sketch.</desc>
    <g id="Page-1" stroke="none" stroke-width="1" fill="none" fill-rule="evenodd">
        <g id="Logos" transform="translate(-116.000000, -142.000000)">
            <g id="Group-6" transform="translate(116.000000, 142.000000)">
                <path d="M61.08,22.624 C61.0159997,22.1919978 60.8720011,21.7960018 60.648,21.436 C60.4239989,21.0759982 60.1440017,20.7600014 59.808,20.488 C59.4719983,20.2159986 59.0920021,20.0040008 58.668,19.852 C58.2439979,19.6999992 57.8000023,19.624 57.336,19.624 C56.4879958,19.624 55.768003,19.7879984 55.176,20.116 C54.583997,20.4440016 54.1040018,20.8839972 53.736,21.436 C53.3679982,21.9880028 53.1000008,22.6159965 52.932,23.32 C52.7639992,24.0240035 52.68,24.7519962 52.68,25.504 C52.68,26.2240036 52.7639992,26.9239966 52.932,27.604 C53.1000008,28.2840034 53.3679982,28.8959973 53.736,29.44 C54.1040018,29.9840027 54.583997,30.4199984 55.176,30.748 C55.768003,31.0760016 56.4879958,31.24 57.336,31.24 C58.4880058,31.24 59.3879968,30.8880035 60.036,30.184 C60.6840032,29.4799965 61.0799993,28.5520058 61.224,27.4 L64.872,27.4 C64.7759995,28.4720054 64.528002,29.4399957 64.128,30.304 C63.727998,31.1680043 63.2000033,31.903997 62.544,32.512 C61.8879967,33.120003 61.1200044,33.5839984 60.24,33.904 C59.3599956,34.2240016 58.3920053,34.384 57.336,34.384 C56.0239934,34.384 54.8440052,34.1560023 53.796,33.7 C52.7479948,33.2439977 51.8640036,32.616004 51.144,31.816 C50.4239964,31.015996 49.8720019,30.0760054 49.488,28.996 C49.1039981,27.9159946 48.912,26.7520062 48.912,25.504 C48.912,24.2239936 49.1039981,23.0360055 49.488,21.94 C49.8720019,20.8439945 50.4239964,19.8880041 51.144,19.072 C51.8640036,18.2559959 52.7479948,17.6160023 53.796,17.152 C54.8440052,16.6879977 56.0239934,16.456 57.336,16.456 C58.2800047,16.456 59.1719958,16.5919986 60.012,16.864 C60.8520042,17.1360014 61.6039967,17.5319974 62.268,18.052 C62.9320033,18.5720026 63.4799978,19.2159962 63.912,19.984 C64.3440022,20.7520038 64.6159994,21.631995 64.728,22.624 L61.08,22.624 Z M67.586,25.408 C67.6340002,24.607996 67.8339982,23.9440026 68.186,23.416 C68.5380017,22.8879974 68.9859973,22.4640016 69.53,22.144 C70.0740027,21.8239984 70.6859966,21.5960007 71.366,21.46 C72.0460034,21.3239993 72.7299965,21.256 73.418,21.256 C74.0420031,21.256 74.6739968,21.2999996 75.314,21.388 C75.9540032,21.4760004 76.5379973,21.6479987 77.066,21.904 C77.5940026,22.1600013 78.0259983,22.5159977 78.362,22.972 C78.6980017,23.4280023 78.866,24.0319962 78.866,24.784 L78.866,31.24 C78.866,31.8000028 78.8979997,32.3359974 78.962,32.848 C79.0260003,33.3600026 79.1379992,33.7439987 79.298,34 L75.842,34 C75.7779997,33.807999 75.7260002,33.612001 75.686,33.412 C75.6459998,33.211999 75.6180001,33.008001 75.602,32.8 C75.0579973,33.3600028 74.4180037,33.7519989 73.682,33.976 C72.9459963,34.2000011 72.1940038,34.312 71.426,34.312 C70.833997,34.312 70.2820025,34.2400007 69.77,34.096 C69.2579974,33.9519993 68.8100019,33.7280015 68.426,33.424 C68.0419981,33.1199985 67.7420011,32.7360023 67.526,32.272 C67.3099989,31.8079977 67.202,31.256 67.202,30.616 C67.202,29.9119965 67.3259987,29.3320023 67.574,28.876 C67.8220012,28.4199977 68.141998,28.0560014 68.534,27.784 C68.9260019,27.5119986 69.3739975,27.3080007 69.878,27.172 C70.3820025,27.0359993 70.8899974,26.9280004 71.402,26.848 C71.9140025,26.7679996 72.4179975,26.7040002 72.914,26.656 C73.4100025,26.6079998 73.8499981,26.5360005 74.234,26.44 C74.6180019,26.3439995 74.9219989,26.2040009 75.146,26.02 C75.3700011,25.8359991 75.4740001,25.5680018 75.458,25.216 C75.458,24.8479982 75.3980006,24.5560011 75.278,24.34 C75.1579994,24.1239989 74.998001,23.9560006 74.798,23.836 C74.597999,23.7159994 74.3660013,23.6360002 74.102,23.596 C73.8379987,23.5559998 73.5540015,23.536 73.25,23.536 C72.5779966,23.536 72.0500019,23.6799986 71.666,23.968 C71.2819981,24.2560014 71.0580003,24.7359966 70.994,25.408 L67.586,25.408 Z M75.458,27.928 C75.3139993,28.0560006 75.1340011,28.1559996 74.918,28.228 C74.7019989,28.3000004 74.4700012,28.3599998 74.222,28.408 C73.9739987,28.4560002 73.7140013,28.4959998 73.442,28.528 C73.1699986,28.5600002 72.8980013,28.5999998 72.626,28.648 C72.3699987,28.6960002 72.1180012,28.7599996 71.87,28.84 C71.6219987,28.9200004 71.4060009,29.0279993 71.222,29.164 C71.0379991,29.3000007 70.8900005,29.471999 70.778,29.68 C70.6659994,29.888001 70.61,30.1519984 70.61,30.472 C70.61,30.7760015 70.6659994,31.031999 70.778,31.24 C70.8900005,31.448001 71.041999,31.6119994 71.234,31.732 C71.4260009,31.8520006 71.6499987,31.9359998 71.906,31.984 C72.1620013,32.0320002 72.4259986,32.056 72.698,32.056 C73.3700033,32.056 73.8899981,31.9440011 74.258,31.72 C74.6260018,31.4959989 74.8979991,31.2280016 75.074,30.916 C75.2500009,30.6039984 75.3579998,30.2880016 75.398,29.968 C75.4380002,29.6479984 75.458,29.392001 75.458,29.2 L75.458,27.928 Z M82.156,21.592 L85.396,21.592 L85.396,23.32 L85.468,23.32 C85.9000021,22.5999964 86.4599965,22.0760016 87.148,21.748 C87.8360034,21.4199984 88.5399964,21.256 89.26,21.256 C90.1720045,21.256 90.919997,21.3799988 91.504,21.628 C92.0880029,21.8760012 92.5479983,22.2199978 92.884,22.66 C93.2200016,23.1000022 93.4559993,23.6359968 93.592,24.268 C93.7280006,24.9000032 93.796,25.5999962 93.796,26.368 L93.796,34 L90.388,34 L90.388,26.992 C90.388,25.9679949 90.2280016,25.2040025 89.908,24.7 C89.5879984,24.1959975 89.020004,23.944 88.204,23.944 C87.2759953,23.944 86.604002,24.2199972 86.188,24.772 C85.7719979,25.3240028 85.564,26.2319937 85.564,27.496 L85.564,34 L82.156,34 L82.156,21.592 Z M101.358,21.592 L103.854,21.592 L103.854,23.872 L101.358,23.872 L101.358,30.016 C101.358,30.5920029 101.453999,30.975999 101.646,31.168 C101.838001,31.360001 102.221997,31.456 102.798,31.456 C102.990001,31.456 103.173999,31.4480001 103.35,31.432 C103.526001,31.4159999 103.693999,31.3920002 103.854,31.36 L103.854,34 C103.565998,34.0480002 103.246002,34.0799999 102.894,34.096 C102.541998,34.1120001 102.198002,34.12 101.862,34.12 C101.333997,34.12 100.834002,34.0840004 100.362,34.012 C99.8899976,33.9399996 99.4740017,33.800001 99.1139999,33.592 C98.7539981,33.383999 98.470001,33.0880019 98.2619999,32.704 C98.0539989,32.3199981 97.9499999,31.8160031 97.9499999,31.192 L97.9499999,23.872 L95.8859999,23.872 L95.8859999,21.592 L97.9499999,21.592 L97.9499999,17.872 L101.358,17.872 L101.358,21.592 Z M109.16,27.808 C109.16,28.3040025 109.207999,28.7879976 109.304,29.26 C109.4,29.7320024 109.563999,30.1559981 109.796,30.532 C110.028001,30.9080019 110.335998,31.2079989 110.72,31.432 C111.104002,31.6560011 111.583997,31.768 112.16,31.768 C112.736003,31.768 113.219998,31.6560011 113.612,31.432 C114.004002,31.2079989 114.315999,30.9080019 114.548,30.532 C114.780001,30.1559981 114.943999,29.7320024 115.04,29.26 C115.136,28.7879976 115.184,28.3040025 115.184,27.808 C115.184,27.3119975 115.136,26.8240024 115.04,26.344 C114.943999,25.8639976 114.780001,25.4400018 114.548,25.072 C114.315999,24.7039982 114.004002,24.4040012 113.612,24.172 C113.219998,23.9399988 112.736003,23.824 112.16,23.824 C111.583997,23.824 111.104002,23.9399988 110.72,24.172 C110.335998,24.4040012 110.028001,24.7039982 109.796,25.072 C109.563999,25.4400018 109.4,25.8639976 109.304,26.344 C109.207999,26.8240024 109.16,27.3119975 109.16,27.808 Z M105.752,27.808 C105.752,26.815995 105.903998,25.916004 106.208,25.108 C106.512001,24.299996 106.943997,23.6120028 107.504,23.044 C108.064003,22.4759972 108.735996,22.0360016 109.52,21.724 C110.304004,21.4119984 111.183995,21.256 112.16,21.256 C113.136005,21.256 114.019996,21.4119984 114.812,21.724 C115.604004,22.0360016 116.279997,22.4759972 116.84,23.044 C117.400003,23.6120028 117.831998,24.299996 118.136,25.108 C118.440001,25.916004 118.592,26.815995 118.592,27.808 C118.592,28.800005 118.440001,29.695996 118.136,30.496 C117.831998,31.296004 117.400003,31.9799972 116.84,32.548 C116.279997,33.1160028 115.604004,33.5519985 114.812,33.856 C114.019996,34.1600015 113.136005,34.312 112.16,34.312 C111.183995,34.312 110.304004,34.1600015 109.52,33.856 C108.735996,33.5519985 108.064003,33.1160028 107.504,32.548 C106.943997,31.9799972 106.512001,31.296004 106.208,30.496 C105.903998,29.695996 105.752,28.800005 105.752,27.808 Z M121.45,21.592 L124.69,21.592 L124.69,23.32 L124.762,23.32 C125.194002,22.5999964 125.753996,22.0760016 126.442,21.748 C127.130003,21.4199984 127.833996,21.256 128.554,21.256 C129.466004,21.256 130.213997,21.3799988 130.798,21.628 C131.382003,21.8760012 131.841998,22.2199978 132.178,22.66 C132.514002,23.1000022 132.749999,23.6359968 132.886,24.268 C133.022001,24.9000032 133.09,25.5999962 133.09,26.368 L133.09,34 L129.682,34 L129.682,26.992 C129.682,25.9679949 129.522001,25.2040025 129.202,24.7 C128.881998,24.1959975 128.314004,23.944 127.498,23.944 C126.569995,23.944 125.898002,24.2199972 125.482,24.772 C125.065998,25.3240028 124.858,26.2319937 124.858,27.496 L124.858,34 L121.45,34 L121.45,21.592 Z" id="Canton" fill="#EEF0F8" fill-rule="nonzero"></path>
                <g id="Group-5">
                    <path d="M11.1009359,32.1294034 L21.0052954,26 L21.0052954,52 L0.000581409062,38.9996789 L6.26704206e-05,13 L21.0053581,25.9993191 L11.1009359,32.1294034 Z" id="Combined-Shape" fill="#628CD5"></path>
                    <polygon id="Shape_2_copy" fill="#003E83" points="21.0053581 0 21.0053581 26 42.0000627 12.9999042"></polygon>
                    <polygon id="Shape_2_copy_2" fill="#415197" points="21.0053581 0 21.0053581 26 -1.24344979e-14 12.9999042"></polygon>
                    <path d="M21.0053581,26.003316 L42.0053581,38.9998563 L21.0053581,51.9966839 L21.0053581,52 L21.0026791,51.9983419 L21,52 L21,51.9966839 L-5.32907052e-15,38.9998563 L21,26.003316 L21,26 L21.0026791,26.001658 L21.0053581,26 L21.0053581,26.003316 Z" id="Combined-Shape" fill="#8EC0F7"></path>
                    <polygon id="Shape_2_copy_4" fill="#A7D0FD" points="21.0053581 26 21.0053581 52 42.0000627 38.9998563"></polygon>
                </g>
            </g>
        </g>
    </g>
</svg>