<svg width="58" height="61" viewBox="0 0 58 61" xmlns="http://www.w3.org/2000/svg"><g fill="none" fill-rule="evenodd"><path d="M22.318 3.728c-.12 0-.24-.03-.345-.09-2.883-1.495-5.376-2.129-8.364-2.129-2.974 0-5.797.71-8.365 2.128a.762.762 0 0 1-1.02-.301.766.766 0 0 1 .3-1.027A18.78 18.78 0 0 1 13.609 0c3.198 0 5.991.71 9.055 2.294a.74.74 0 0 1 .315 1.011.736.736 0 0 1-.66.423zM.83 11.652a.755.755 0 0 1-.616-1.192C1.7 8.345 3.593 6.685 5.845 5.523c4.715-2.445 10.752-2.46 15.482-.015a15.608 15.608 0 0 1 5.632 4.905.757.757 0 0 1-.18 1.057.746.746 0 0 1-1.052-.182c-1.351-1.901-3.063-3.395-5.09-4.437-4.31-2.219-9.821-2.219-14.116.015-2.042 1.057-3.754 2.566-5.106 4.468-.12.211-.345.317-.585.317zm9.385 18.217a.703.703 0 0 1-.526-.227c-1.306-1.313-2.012-2.158-3.018-3.984-1.036-1.857-1.577-4.12-1.577-6.55 0-4.483 3.814-8.136 8.5-8.136 4.685 0 8.5 3.653 8.5 8.135 0 .423-.331.755-.752.755a.745.745 0 0 1-.75-.755c0-3.652-3.139-6.625-6.998-6.625-3.86 0-6.998 2.973-6.998 6.625 0 2.174.48 4.181 1.396 5.811.962 1.736 1.622 2.475 2.779 3.653a.778.778 0 0 1 0 1.071.821.821 0 0 1-.556.227zm10.767-2.793c-1.787 0-3.364-.452-4.655-1.343-2.238-1.524-3.574-4-3.574-6.626 0-.422.33-.754.75-.754.421 0 .751.332.751.754 0 2.129 1.082 4.136 2.914 5.373 1.066.725 2.312 1.072 3.814 1.072.36 0 .961-.045 1.562-.15a.749.749 0 0 1 .87.618.752.752 0 0 1-.615.875c-.856.166-1.607.181-1.817.181zm-3.018 3.11a.875.875 0 0 1-.196-.03c-2.387-.665-3.95-1.555-5.586-3.17a11.04 11.04 0 0 1-3.258-7.879c0-2.445 2.072-4.437 4.625-4.437 2.552 0 4.625 1.992 4.625 4.437 0 1.615 1.396 2.928 3.123 2.928 1.727 0 3.124-1.313 3.124-2.928 0-5.69-4.88-10.308-10.887-10.308-4.265 0-8.17 2.385-9.926 6.082-.586 1.223-.886 2.657-.886 4.226 0 1.178.105 3.034 1.006 5.449a.738.738 0 0 1-.436.966.744.744 0 0 1-.96-.438c-.737-1.977-1.097-3.939-1.097-5.977 0-1.81.345-3.456 1.021-4.89 1.997-4.21 6.427-6.942 11.278-6.942 6.832 0 12.388 5.297 12.388 11.817 0 2.445-2.072 4.438-4.625 4.438s-4.625-1.993-4.625-4.438c0-1.615-1.396-2.928-3.123-2.928-1.727 0-3.124 1.313-3.124 2.928 0 2.581.991 4.996 2.808 6.807 1.427 1.419 2.793 2.204 4.91 2.792a.75.75 0 0 1 .526.921.734.734 0 0 1-.705.574z" fill="#5C86DF" fill-rule="nonzero"/><ellipse fill="#FFF" cx="31.207" cy="33.644" rx="16.076" ry="16.036"/><path d="M29.772 17.177c.805 2.005 1.19 4.312 1.19 6.635a1.85 1.85 0 0 1-1.871 1.863 1.85 1.85 0 0 1-1.872-1.863c0-1.937.112-1.336-1.025-5.523 1.034-.929 1.316-1.336 3.578-1.112zM16.585 40.166c-2.256-2.66-.673-10.132-1.233-6.012a16.85 16.85 0 0 0 3.33 2.92c2.658 1.788 5.766 2.645 9.51 2.645.899 0 2.396-.112 3.894-.373a1.866 1.866 0 0 1 2.172 1.528c.187 1.005-.487 1.974-1.535 2.16-2.135.41-4.007.447-4.531.447-4.456 0-8.387-1.117-11.607-3.315zm4.07-19.653c.485 1.012.535 2.15.535 3.3 0 3.985 3.482 7.226 7.788 7.226s7.789-3.24 7.789-7.227a23.97 23.97 0 0 0-.548-5.104c-.05-.604 2.89-.41 4.092 1.732.132 1.095.2 2.208.2 3.335 0 6.035-5.167 10.952-11.533 10.952-6.365 0-11.532-6.966-11.532-10.952 1.612-1.777 1.718-2.921 3.21-3.262z" fill="#5C86DF" fill-rule="nonzero"/><ellipse stroke="#CAD0E3" stroke-width="3" cx="30.891" cy="33.644" rx="15.761" ry="16.036"/><path d="M48.36 46.948l8.207 8.206a2 2 0 0 1 0 2.828s0 0 0 0l-1.585 1.585a2 2 0 0 1-2.829 0l-8.206-8.205a2 2 0 0 1 0-2.828s0 0 0 0l1.585-1.585a2 2 0 0 1 2.829 0z" stroke="#CAD0E3" fill="#CAD0E3"/></g></svg>