<svg width="54" height="43" viewBox="0 0 54 43" xmlns="http://www.w3.org/2000/svg"><g fill-rule="nonzero" fill="none"><path fill="#EDEFF6" d="M30.391 7.224L42.021.745l11.63 6.479-11.63 6.479z"/><path fill="#5C86DF" d="M30.39 7.19l11.562 6.442-.002 12.494-11.559-6.435z"/><path fill="#CAD0E3" d="M53.6 7.19l-11.652 6.465.002 12.471 11.65-6.435z"/><g><path fill="#EDEFF6" d="M15.525 15.654l11.63-6.479 11.63 6.479-11.63 6.479z"/><path fill="#5C86DF" d="M15.524 15.62l11.562 6.442-.002 12.494-11.559-6.435z"/><path fill="#CAD0E3" d="M38.734 15.62l-11.652 6.465.002 12.471 11.65-6.435z"/></g><g><path fill="#EDEFF6" d="M.525 23.654l11.63-6.479 11.63 6.479-11.63 6.479z"/><path fill="#5C86DF" d="M.524 23.62l11.562 6.442-.002 12.494L.525 36.121z"/><path fill="#CAD0E3" d="M23.734 23.62l-11.652 6.465.002 12.471 11.65-6.435z"/></g></g></svg>